<svg width="25" height="24" viewBox="0 0 25 24" fill="none" xmlns="http://www.w3.org/2000/svg">
<g clip-path="url(#clip0_5_25164)">
<path fill-rule="evenodd" clip-rule="evenodd" d="M20.3002 16C20.3018 17.4047 19.9427 18.785 19.2591 20.0022C18.5756 21.2194 17.5915 22.2306 16.406 22.934C15.2205 23.6374 13.8754 24.0082 12.5058 24.0092C11.1362 24.0102 9.7906 23.6413 8.60412 22.9397C7.41765 22.2381 6.43214 21.2284 5.74684 20.0122C5.06155 18.796 4.70059 17.4162 4.7002 16.0115C4.6998 14.6068 5.05997 13.2268 5.74458 12.0102C6.4292 10.7936 7.41412 9.78334 8.6002 9.08099V4C8.6002 2.93913 9.01114 1.92172 9.74254 1.17157C10.4739 0.421424 11.4659 0 12.5002 0C13.5345 0 14.5265 0.421424 15.2579 1.17157C15.9892 1.92172 16.4002 2.93913 16.4002 4V9.07999C17.5853 9.78082 18.5697 10.7893 19.2543 12.004C19.9389 13.2188 20.2996 14.5969 20.3002 16ZM8.6002 9.08099L8.72695 9.00201H8.6002V9.08099ZM12.5002 2.00201C11.983 2.00201 11.4871 2.21273 11.1214 2.5878C10.7557 2.96287 10.5502 3.47158 10.5502 4.00201V8.26199C11.8277 7.91132 13.1727 7.91132 14.4502 8.26199V4C14.4502 3.46957 14.2447 2.96086 13.879 2.58578C13.5133 2.21071 13.0174 2 12.5002 2V2.00201ZM16.4002 9.00201H16.2734L16.4002 9.08099V9V9.00201ZM12.5002 9.98901C11.3408 9.98862 10.2073 10.3409 9.24313 11.0012C8.27893 11.6616 7.52726 12.6004 7.0833 13.6989C6.63935 14.7974 6.52303 16.0063 6.74898 17.1727C6.97494 18.339 7.53306 19.4104 8.35276 20.2514C9.17245 21.0924 10.2168 21.6652 11.3539 21.8973C12.491 22.1295 13.6698 22.0105 14.741 21.5555C15.8122 21.1006 16.7278 20.33 17.372 19.3413C18.0162 18.3526 18.36 17.1902 18.36 16.001C18.3584 14.4072 17.7406 12.879 16.6422 11.7516C15.5437 10.6242 14.0542 9.98965 12.5002 9.987V9.98901ZM12.5002 18.002C12.2416 18.002 11.9936 17.8966 11.8107 17.7091C11.6279 17.5216 11.5252 17.2672 11.5252 17.002V15.002C11.5252 14.7368 11.6279 14.4824 11.8107 14.2949C11.9936 14.1074 12.2416 14.002 12.5002 14.002C12.7588 14.002 13.0068 14.1074 13.1897 14.2949C13.3725 14.4824 13.4752 14.7368 13.4752 15.002V17.002C13.4747 17.2669 13.3717 17.5207 13.189 17.7078C13.0062 17.8949 12.7584 18 12.5002 18V18.002Z" fill="#01C120"/>
</g>
<defs>
<clipPath id="clip0_5_25164">
<rect width="15.6" height="24" fill="white" transform="translate(4.7002)"/>
</clipPath>
</defs>
</svg>
