<svg width="22" height="14" viewBox="0 0 22 14" fill="none" xmlns="http://www.w3.org/2000/svg">
<path fill-rule="evenodd" clip-rule="evenodd" d="M11.0002 12.0118C9.83817 13.0172 8.33078 13.6242 6.68361 13.6242C3.00826 13.6242 0.0288086 10.6023 0.0288086 6.87459C0.0288086 3.14689 3.00826 0.125 6.68361 0.125C8.33078 0.125 9.83817 0.731957 11.0002 1.73739C12.1623 0.731957 13.6697 0.125 15.3169 0.125C18.9922 0.125 21.9717 3.14689 21.9717 6.87459C21.9717 10.6023 18.9922 13.6242 15.3169 13.6242C13.6697 13.6242 12.1623 13.0172 11.0002 12.0118Z" fill="#ED0006"/>
<path fill-rule="evenodd" clip-rule="evenodd" d="M11 12.0118C12.4309 10.7738 13.3382 8.93165 13.3382 6.87459C13.3382 4.81752 12.4309 2.97538 11 1.73739C12.1621 0.731957 13.6695 0.125 15.3166 0.125C18.992 0.125 21.9714 3.14689 21.9714 6.87459C21.9714 10.6023 18.992 13.6242 15.3166 13.6242C13.6695 13.6242 12.1621 13.0172 11 12.0118Z" fill="#F9A000"/>
<path fill-rule="evenodd" clip-rule="evenodd" d="M11.0003 12.0118C12.4311 10.7738 13.3384 8.93169 13.3384 6.87463C13.3384 4.81758 12.4311 2.97546 11.0003 1.73746C9.5694 2.97546 8.66211 4.81758 8.66211 6.87463C8.66211 8.93169 9.5694 10.7738 11.0003 12.0118Z" fill="#FF5E00"/>
</svg>
