<svg width="24" height="24" viewBox="0 0 24 24" fill="none" xmlns="http://www.w3.org/2000/svg">
<path d="M11.1531 1.3489C11.5451 0.724548 12.4549 0.724548 12.8469 1.3489L15.8281 6.09713C15.9651 6.31538 16.1811 6.4723 16.431 6.53517L21.8681 7.90317C22.583 8.08305 22.8642 8.94834 22.3915 9.51409L18.7969 13.8167C18.6317 14.0144 18.5492 14.2683 18.5666 14.5254L18.9457 20.1191C18.9956 20.8546 18.2595 21.3894 17.5754 21.1147L12.3726 19.0256C12.1335 18.9296 11.8665 18.9296 11.6274 19.0256L6.42461 21.1147C5.74048 21.3894 5.00443 20.8546 5.05428 20.1191L5.43338 14.5254C5.45081 14.2683 5.36831 14.0144 5.20309 13.8167L1.60849 9.51409C1.13583 8.94834 1.41698 8.08305 2.13191 7.90317L7.56899 6.53517C7.81889 6.4723 8.03488 6.31538 8.1719 6.09713L11.1531 1.3489Z" fill="#FF8D24"/>
</svg>
