<svg width="200" height="80" viewBox="0 0 200 80" fill="none" xmlns="http://www.w3.org/2000/svg">
<path d="M15.0903 46.2803C14.755 39.8798 17.6054 25.6019 31.6896 19.6938C45.7738 13.7856 65.0558 12.6368 72.9363 12.8009C70.9242 14.278 66.7996 17.3305 66.3972 17.7244C65.9947 18.1183 67.2355 18.545 67.9062 18.7091C73.1039 18.0526 84.3042 16.8382 87.5235 17.232C91.5475 17.7244 103.117 12.801 109.153 13.2933C113.982 13.6872 115.86 14.1139 116.195 14.278C112.171 14.4421 103.217 16.1489 99.5957 21.6631C99.5957 22.1555 121.225 20.1861 129.273 17.232C137.321 14.278 151.908 11.8163 161.466 15.755C156.1 16.0832 144.263 17.7244 139.836 21.6631C134.303 26.5866 126.255 32.4947 120.219 36.9258C115.39 40.4706 104.458 42.0133 99.5957 42.3415C102.614 43.3262 109.958 45.3941 115.189 45.788C120.42 46.1818 123.069 46.9368 123.74 47.265C120.554 47.1009 112.573 47.3634 106.135 49.7267C99.6963 52.0899 90.3739 52.6808 86.5175 52.6808C87.747 53.7505 90.6464 55.7573 93.8549 56.677C94.7703 56.7722 95.5182 56.9303 96.0746 57.1118C95.3294 57.0389 94.5842 56.886 93.8549 56.677C89.805 56.2559 82.476 57.0662 73.9423 62.5276C60.8641 70.8975 35.2107 74.3439 25.1505 67.9434C17.1024 62.823 15.0903 51.3678 15.0903 46.2803Z" fill="#FF842B" stroke="black"/>
<path d="M39.2344 27.5713C35.7134 25.1095 32.6953 27.0789 28.1682 31.51C25.4803 33.9717 27.1622 38.8952 27.1622 39.8798C27.1622 40.8645 21.6291 40.8645 21.1261 47.265C20.6231 53.6655 28.1682 52.6808 28.1682 54.1578C29.3755 60.0659 34.372 61.8712 36.7194 62.0353C34.7073 62.6918 38.7314 66.4664 41.7494 67.4511C49.7976 70.0769 55.4983 63.6764 56.8397 60.0659C57.678 60.0659 60.2601 59.2782 63.8818 56.1272C67.5034 52.9762 64.0495 48.9061 61.8698 47.265C62.5404 47.1009 64.4854 46.2803 66.8998 44.3109C69.9179 41.8492 67.9058 37.9105 66.3968 35.9411C64.8878 33.9717 64.3848 33.4794 63.8818 29.0483C63.3788 24.6172 57.3427 24.6172 55.3307 25.1095C53.3186 25.6019 51.8096 22.6478 46.7795 22.6478C41.7494 22.6478 42.7555 30.033 39.2344 27.5713Z" fill="#FFE600"/>
<path d="M55.2077 27.4936C53.4443 24.7653 50.6189 22.334 47.092 23.2991C43.3944 24.3013 42.4842 27.902 42.105 31.1685C41.9912 32.1893 40.3605 32.0965 40.2846 31.0943C39.602 21.4988 52.3066 17.9167 56.1748 27.0111C56.4024 27.5679 55.5491 28.0133 55.2267 27.4936H55.2077Z" fill="#3A3A3A"/>
<path d="M41.5741 32.7462C40.6639 32.0966 39.5072 31.5954 38.5022 32.3007C37.4403 33.0246 37.2887 34.4537 36.1509 35.0662C35.8096 35.2518 35.3545 35.1775 35.2028 34.7692C34.5392 33.0431 36.3595 30.9458 37.8765 30.222C39.6589 29.3682 41.4603 30.055 42.8256 31.317C43.7357 32.1522 42.5791 33.4514 41.593 32.7462H41.5741Z" fill="#3A3A3A"/>
<path d="M40.1142 28.4031C38.3508 27.9762 37.0045 27.0482 35.0893 27.3452C32.9466 27.6792 31.0314 28.997 29.6661 30.5932C28.3198 32.1708 27.4097 34.1381 27.2959 36.1983C27.1821 38.4441 28.6043 39.966 28.9267 42.0447C29.0025 42.5644 28.3957 42.9541 27.9406 42.7314C25.7031 41.6364 25.0963 38.2213 25.2669 35.9941C25.4376 33.4514 26.6323 31.0201 28.3957 29.1455C30.8987 26.4914 38.0853 23.1692 40.5693 27.7349C40.74 28.0319 40.5503 28.5144 40.1332 28.4216L40.1142 28.4031Z" fill="#3A3A3A"/>
<path d="M30.1212 40.6156C29.9506 41.191 29.7231 41.7849 29.6282 42.3788C29.5334 42.8614 29.6851 43.344 29.5714 43.808C29.4576 44.1977 29.0783 44.3276 28.718 44.1049C27.5803 43.3625 28.5474 41.1724 28.9456 40.2444C29.211 39.6134 30.3298 39.9475 30.1212 40.6156Z" fill="#3A3A3A"/>
<path d="M27.0494 40.8012C24.3378 42.119 22.1762 44.6617 22.29 47.7427C22.4417 51.4547 25.7979 52.6239 29.0594 52.8838C30.1023 52.958 30.0265 54.6841 28.9836 54.6841C24.8498 54.6656 20.7919 52.5497 20.4696 48.1324C20.1851 44.3276 22.8967 40.6527 26.6322 39.7247C27.3718 39.5391 27.7131 40.4671 27.0305 40.8012H27.0494Z" fill="#3A3A3A"/>
<path d="M29.8748 51.3062C28.8698 54.5728 28.756 57.6538 32.1312 59.584C35.2031 61.3472 38.5783 60.6234 41.4416 58.8602C42.4845 58.2291 43.4326 59.6026 42.5224 60.3821C39.261 63.129 34.1412 63.2774 30.6143 60.9203C27.1632 58.6189 26.1961 54.1088 28.5853 50.7123C28.9835 50.1369 30.0834 50.6195 29.8748 51.3062Z" fill="#3A3A3A"/>
<path d="M37.1941 60.9388C38.2749 65.5046 41.1193 67.6576 46.0494 66.9894C51.2071 66.2841 54.9994 62.832 56.0234 57.8579C56.2889 56.5772 58.1851 56.9299 58.0334 58.2105C57.3128 64.3168 51.5863 68.5856 45.5374 69.031C40.8348 69.3836 34.7859 66.5811 35.9995 61.0502C36.1133 60.512 37.0614 60.3078 37.2131 60.9388H37.1941Z" fill="#3A3A3A"/>
<path d="M54.6959 24.4684C57.2179 22.7608 60.3845 23.3919 62.6031 25.3964C64.5182 27.141 66.5851 31.5954 64.2907 33.7855C63.8546 34.1938 63.2099 33.9897 63.0961 33.4143C62.8686 32.2636 63.3805 31.1314 63.153 29.925C62.9254 28.7186 62.2997 27.605 61.4085 26.7512C59.7967 25.2108 57.3885 24.6725 55.2648 25.5263C54.6011 25.8047 54.1081 24.8396 54.6959 24.4498V24.4684Z" fill="#3A3A3A"/>
<path d="M60.0242 31.2985C65.2198 30.686 69.1449 35.1404 69.2208 39.9846C69.2966 44.1791 64.7078 50.4895 59.7777 48.2067C59.3415 48.0025 59.2088 47.2972 59.6829 47.0374C61.5222 46.0537 63.6459 46.3135 65.2766 44.7731C66.604 43.511 67.2108 41.6921 67.1918 39.9289C67.1539 35.6972 64.101 33.0803 59.9673 32.8761C59.0192 32.8204 59.1519 31.3913 60.0242 31.2985Z" fill="#3A3A3A"/>
<path d="M63.0014 47.3157C65.9595 48.6706 66.9076 52.197 65.7698 55.0553C64.4046 58.5074 60.7259 60.6975 57.0852 61.1058C55.701 61.2543 55.5682 59.2869 56.8766 59.0271C59.6261 58.4889 62.3377 57.2268 63.684 54.6469C65.0303 52.0671 63.8926 50.2296 62.2239 48.188C61.8257 47.7055 62.4515 47.0744 62.9824 47.3157H63.0014Z" fill="#3A3A3A"/>
<path d="M54.582 32.2636C56.7816 33.2287 58.4503 35.1961 58.0711 37.6646C57.7297 39.9289 55.606 42.3046 53.2168 42.5087C52.5152 42.5644 52.2686 41.7292 52.7616 41.3209C54.1269 40.2073 55.7767 39.6505 56.3645 37.8316C56.9902 35.8828 55.6439 34.3423 54.0511 33.3586C53.4064 32.9503 53.8425 31.9295 54.582 32.2636Z" fill="#3A3A3A"/>
<path d="M58.0141 44.309C59.1897 45.3298 59.7775 46.5548 59.4931 48.1138C59.2276 49.58 58.2985 51.0463 56.8953 51.6588C56.4402 51.8629 56.061 51.3432 56.2316 50.9535C56.6488 49.9884 57.4452 49.2645 57.8055 48.2623C58.2226 47.1301 57.8434 46.0351 57.1608 45.07C56.7815 44.5503 57.5211 43.8636 58.0141 44.309Z" fill="#3A3A3A"/>
<path d="M39.0899 42.5087C38.4073 44.3647 37.9522 46.1094 39.2226 47.8726C40.4741 49.5986 42.2186 49.5058 44.02 50.2482C44.551 50.471 44.3993 51.1206 43.9632 51.3433C41.6498 52.4754 38.6917 50.471 37.535 48.5593C36.3025 46.5362 36.2266 43.5666 38.0659 41.8591C38.5779 41.3765 39.3364 41.8591 39.0899 42.5087Z" fill="#3A3A3A"/>
<path d="M52.8376 48.3923C52.5911 49.3203 52.1929 50.0441 51.3965 50.638C50.7138 51.1392 49.7089 51.6403 48.9504 51.0835C48.6849 50.8979 48.7229 50.5452 48.8935 50.304C49.2538 49.8028 49.8985 49.8028 50.4105 49.4688C50.9414 49.1161 51.3965 48.5779 51.6999 48.0396C52.0033 47.4828 53.0272 47.7241 52.8376 48.3923Z" fill="#3A3A3A"/>
<path d="M52.8948 57.8578C52.4776 59.2313 51.8519 60.1778 50.4676 60.7903C49.2162 61.3471 47.5285 61.5513 46.2581 60.9388C45.8788 60.7532 45.8599 60.1407 46.296 60.0108C47.301 59.6953 48.3818 59.8252 49.3868 59.5097C50.3918 59.2127 51.2641 58.4146 51.7192 57.4866C52.0036 56.8927 53.0844 57.1711 52.8758 57.8578H52.8948Z" fill="#3A3A3A"/>
<path d="M49.2351 37.182C47.0734 36.1426 45.0635 36.718 42.788 36.7366C42.3709 36.7366 41.9916 36.1241 42.4657 35.8828C44.9118 34.6207 47.6612 34.4351 49.9746 36.0498C50.6193 36.4953 49.9178 37.5161 49.2351 37.182Z" fill="#3A3A3A"/>
<path d="M72.5773 13.1468C60.3279 14.1119 47.0734 13.7964 35.5824 18.6034C22.4986 24.0786 12.9986 37.4604 16.0135 51.6217C22.8209 83.6934 62.8878 67.4349 82.1532 58.0992C82.7031 57.8208 83.1771 58.7302 82.6651 59.0457C63.229 70.8685 21.3419 85.0112 14.1743 52.16C11.7471 41.0425 16.6962 29.758 25.4756 22.6124C38.5974 11.9404 56.5355 13.1282 72.5205 12.3302C73.0514 12.3116 73.1462 13.1097 72.5963 13.1468H72.5773Z" fill="#3A3A3A"/>
<path d="M73.9613 13.685C71.4963 14.9286 69.2019 16.2649 66.9454 17.8239C66.5472 18.1023 66.0732 17.5826 66.3765 17.2114C68.1779 15.0214 70.9843 13.7593 73.5631 12.6271C74.2458 12.3302 74.606 13.351 73.9613 13.685Z" fill="#3A3A3A"/>
<path d="M67.571 18.158C76.3694 16.1164 85.2057 17.3784 94.1368 15.1512C101.646 13.2767 108.567 11.3464 116.228 13.685C116.853 13.8706 116.721 14.8357 116.038 14.6872C106.633 12.7384 98.8773 15.6152 89.8324 17.5455C82.4752 19.1231 75.0989 17.6012 67.7417 18.8818C67.3245 18.956 67.1539 18.2508 67.571 18.158Z" fill="#3A3A3A"/>
<path d="M116.19 14.6872C112.815 14.8172 101.646 18.3436 100.11 22.2597C99.8256 22.965 98.7448 22.4639 99.0102 21.7586C99.0671 21.6101 99.105 21.4616 99.1619 21.3132C99.2567 20.9791 99.5222 20.7749 99.8825 20.812C121.518 23.5218 141.22 6.61363 162.628 15.4668C163.121 15.6709 162.874 16.5247 162.343 16.3762C148.88 12.3487 137.503 15.4296 124.457 19.2716C122.428 19.8655 99.6739 23.5961 100.129 22.2783C99.9204 22.9093 98.7827 22.5567 98.9913 21.9256C100.527 17.1743 111.525 13.6479 116.114 13.7221C116.759 13.7221 116.872 14.6872 116.209 14.7244L116.19 14.6872Z" fill="#3A3A3A"/>
<path d="M161.623 16.6546C146.472 16.5989 136.081 24.5983 125.443 34.0268C116.721 41.7849 109.022 42.2489 97.6451 43.511C96.9815 43.5852 96.697 42.5273 97.3797 42.3602C104.699 40.4671 111.98 41.4322 118.693 37.2934C123.661 34.231 127.34 29.6652 131.853 26.0645C140.139 19.4201 150.834 14.8172 161.661 15.9122C162.097 15.9493 162.078 16.6732 161.623 16.6732V16.6546Z" fill="#3A3A3A"/>
<path d="M99.1051 41.3766C107.126 46.6848 118.2 41.9705 125.557 48.0582C125.917 48.3552 125.557 48.912 125.121 48.7264C116.38 45.0144 106.197 47.9468 98.176 42.4716C97.3986 41.952 98.3467 40.8755 99.1241 41.3766H99.1051Z" fill="#3A3A3A"/>
<path d="M124.59 48.615C116.55 46.5177 110.027 50.3225 102.442 52.1228C96.5831 53.5148 90.117 53.9046 84.0871 54.2016C83.5751 54.2201 83.4803 53.5891 83.8975 53.3849C90.4773 50.0812 99.8635 51.1763 107.069 49.0604C113.175 47.2787 118.693 45.4227 124.874 47.7056C125.386 47.8912 125.121 48.7449 124.59 48.615Z" fill="#3A3A3A"/>
<path d="M85.718 53.125C89.5483 54.9068 93.6062 55.3151 97.5503 56.6329C97.9296 56.7628 97.8158 57.431 97.4176 57.4124C93.3976 57.3567 88.7519 56.039 85.2629 54.0902C84.6561 53.7561 85.0923 52.791 85.737 53.1065L85.718 53.125Z" fill="#3A3A3A"/>
<path d="M97.7016 58.2476C94.6297 57.9878 91.6527 57.7094 88.5618 57.9878C85.6606 58.2476 82.9301 59.0828 80.0858 59.6396C79.6307 59.7324 79.3653 59.0271 79.7824 58.8044C84.7884 56.1503 92.4491 55.7791 97.8533 57.4124C98.3842 57.5795 98.2704 58.2847 97.7016 58.2476Z" fill="#3A3A3A"/>
<path d="M48.2111 12.7385C62.6412 10.6783 76.3697 -0.51338 91.2929 2.49334C91.8807 2.6047 91.729 3.45846 91.1222 3.40278C75.4975 1.91798 63.4756 13.5922 48.287 13.6479C47.6991 13.6479 47.6043 12.8313 48.1921 12.7385H48.2111Z" fill="#3A3A3A"/>
<path d="M91.3494 3.32852C89.2826 4.25652 84.2387 8.54388 83.1199 8.09844C83.7267 8.33972 85.9642 7.07764 86.552 6.83636C92.3165 4.4978 99.0291 3.40276 105.173 2.56756C117.802 0.822915 132.27 0.247555 144.273 5.12884C144.766 5.333 144.5 6.1682 143.988 6.01972C132.687 2.69748 121.12 2.12212 109.42 3.30996C103.352 3.92244 97.3225 4.94324 91.4253 6.55796C89.3016 7.13332 84.9024 7.61588 83.2716 9.19349C82.9682 9.49045 82.3045 9.30485 82.4373 8.80373C83.2906 5.66708 88.3345 3.6626 91.084 2.58612C91.577 2.38196 91.8425 3.12436 91.3684 3.34708L91.3494 3.32852Z" fill="#3A3A3A"/>
<path d="M144.234 6.01973C140.347 7.02197 136.46 8.78517 132.516 9.43477C132.08 9.50901 131.814 8.84085 132.213 8.63669C135.683 6.74357 140.101 5.68565 144.007 5.03605C144.576 4.94325 144.803 5.87125 144.234 6.01973Z" fill="#3A3A3A"/>
<path d="M130.468 10.0287C153.678 3.40277 176.641 15.6338 199.699 17.4713C200.116 17.5084 200.097 18.2137 199.661 18.2137C175.92 17.8239 154.74 5.81557 130.639 10.7525C130.222 10.8453 130.051 10.1401 130.468 10.0287Z" fill="#3A3A3A"/>
<path d="M198.846 18.6962C186.558 18.3993 176.565 24.8953 164.941 27.5123C154.209 29.9065 142.206 29.2383 133.426 36.6809C132.914 37.1078 132.137 36.2911 132.63 35.8086C139.76 28.8486 150.663 28.6073 160.011 27.0111C173.342 24.7283 185.06 17.0815 198.883 17.7682C199.414 17.7868 199.376 18.7148 198.846 18.6962Z" fill="#3A3A3A"/>
<path d="M133.862 35.196C138.717 35.3816 144.576 36.124 148.88 38.444C149.316 38.6853 149.127 39.3349 148.615 39.2607C146.093 38.8895 143.628 37.9615 141.125 37.4232C138.717 36.9221 136.271 36.6251 133.824 36.3839C133.142 36.3096 133.18 35.1589 133.881 35.1775L133.862 35.196Z" fill="#3A3A3A"/>
<path d="M148.956 38.7596C139.892 39.4092 135.436 47.7426 128.041 51.6588C121.006 55.3894 112.492 56.1689 104.642 56.5772C104.111 56.5958 103.864 55.7791 104.433 55.6492C114.919 53.2364 124.666 53.4777 133.331 46.0722C138.072 42.0076 142.225 37.7017 148.88 37.7017C149.563 37.7017 149.677 38.7039 148.975 38.741L148.956 38.7596Z" fill="#3A3A3A"/>
<path d="M107.619 55.9462C109.799 57.4866 112.208 58.6745 114.369 60.2521C114.843 60.5862 114.445 61.3286 113.895 61.2358C96.7345 58.2476 80.6168 66.3026 63.7406 66.8409C63.2475 66.8409 62.9821 66.0985 63.532 65.95C74.4731 63.2402 86.1347 61.1244 97.3413 59.9366C97.4172 59.9366 111.885 59.0271 111.79 59.7695C111.79 59.621 107.41 57.3753 106.822 56.6329C106.424 56.1317 107.145 55.5935 107.619 55.9276V55.9462Z" fill="#3A3A3A"/>
<path d="M49.519 14.1305C48.2485 14.3161 47.0729 14.6687 45.7834 14.7615C45.2525 14.7986 45.2146 14.0748 45.7076 13.982C46.9591 13.7221 48.1347 13.2767 49.4052 13.1097C50.0878 13.0169 50.1637 14.0377 49.5 14.1305H49.519Z" fill="#3A3A3A"/>
<path d="M42.6358 12.2559C35.4302 14.1676 29.0211 16.5433 23.048 20.9977C22.6688 21.2761 22.1568 20.7378 22.4791 20.3852C27.4661 15.0213 35.4492 13.1839 42.3514 11.5135C42.8444 11.4021 43.1288 12.126 42.6358 12.2559Z" fill="#3A3A3A"/>
<path d="M18.7631 25.6933C17.9287 26.1202 17.2271 26.6956 16.6393 27.438C16.0705 28.1432 15.7291 28.9784 15.2172 29.7208C14.9327 30.1292 14.3639 29.758 14.4018 29.3496C14.6294 27.3452 16.4686 25.582 18.2131 24.7282C18.782 24.4498 19.3129 25.4149 18.7441 25.7119L18.7631 25.6933Z" fill="#3A3A3A"/>
<path d="M9.64202 47.0188C10.3247 51.4918 10.9504 56.1875 12.5622 60.4377C14.7239 66.1728 18.5352 69.031 23.8825 71.8336C24.3376 72.0749 24.148 72.8358 23.5981 72.7059C11.5951 69.7177 9.90747 57.2454 8.84559 47.0931C8.78871 46.5919 9.56618 46.5177 9.64202 47.0188Z" fill="#3A3A3A"/>
<path d="M79.9721 67.6947C65.2197 70.1446 50.0501 77.9212 34.8425 75.9353C34.2737 75.8611 34.2926 74.9145 34.8804 74.9145C50.6379 75.2486 64.4043 67.342 79.8773 66.7667C80.4841 66.7481 80.56 67.5833 79.9721 67.6761V67.6947Z" fill="#3A3A3A"/>
<path d="M34.9372 79.9814C32.7376 79.9814 30.3864 79.4432 28.2436 78.9977C27.7506 78.8864 27.7696 78.1811 28.2816 78.1254C30.4811 77.847 32.7945 78.775 34.9941 78.9606C35.582 79.0163 35.5441 80 34.9562 80L34.9372 79.9814Z" fill="#3A3A3A"/>
<path d="M74.208 0.971401C65.4475 2.4562 58.0713 8.43253 49.1781 9.19349C48.723 9.23061 48.5144 8.50677 48.9885 8.39541C57.6541 6.37237 65.2769 1.30548 74.1132 0.00627876C74.7579 -0.0865214 74.8337 0.878601 74.208 0.971401Z" fill="#3A3A3A"/>
<path d="M8.92135 34.0454C7.25269 41.6365 3.66885 47.8355 7.25268 55.5379C7.46126 56.0019 6.7976 56.2617 6.49421 55.9277C1.31757 49.7843 5.81155 40.2445 7.95426 33.7484C8.12492 33.2102 9.03512 33.5072 8.92135 34.0454Z" fill="#3A3A3A"/>
<path d="M1.75359 44.4018C1.39331 45.534 1.12785 46.6847 1.10888 47.8725C1.10888 48.9119 1.33642 49.8956 1.3933 50.9164C1.41226 51.3989 0.767551 51.5289 0.558968 51.102C-0.44602 48.9305 0.0659829 46.2578 0.824465 44.1049C0.995123 43.6037 1.92424 43.8821 1.75359 44.4018Z" fill="#3A3A3A"/>
<path d="M4.9774 58.1177C7.27181 64.5024 10.685 69.2352 16.639 72.7801C17.0941 73.0585 16.7907 73.6896 16.2788 73.504C9.71789 71.1097 6.03925 64.6323 4.12408 58.4147C3.95343 57.8764 4.78778 57.5609 4.9774 58.0991V58.1177Z" fill="#3A3A3A"/>
<path d="M166.932 32.7462C161.794 32.8204 157.356 33.9526 152.388 35.0662C151.839 35.1961 151.573 34.5094 152.085 34.2495C156.427 32.1151 162.173 31.3356 166.97 31.7811C167.52 31.8367 167.501 32.7462 166.932 32.7462Z" fill="#3A3A3A"/>
</svg>
