<svg width="24" height="24" viewBox="0 0 24 24" fill="none" xmlns="http://www.w3.org/2000/svg">
<path d="M23.9999 12.2733C24.0009 11.4556 23.9333 10.6393 23.7979 9.83337H12.7334V14.4549H19.0706C18.9409 15.193 18.6665 15.8966 18.2637 16.5233C17.861 17.15 17.3384 17.6868 16.7274 18.1014V21.1013H20.5095C22.724 19.013 23.9999 15.9248 23.9999 12.2733Z" fill="#4285F4"/>
<path d="M12.7318 23.9997C15.8979 23.9997 18.5638 22.9364 20.5079 21.1032L16.7257 18.1033C15.6731 18.8333 14.3173 19.2499 12.7318 19.2499C9.67152 19.2499 7.07405 17.14 6.14522 14.2968H2.24902V17.3883C3.22555 19.3757 4.72293 21.0464 6.57402 22.2139C8.4251 23.3813 10.557 23.9996 12.7318 23.9997V23.9997Z" fill="#34A853"/>
<path d="M6.14551 14.2968C5.65447 12.8069 5.65447 11.1935 6.14551 9.70362V6.61206H2.24931C1.42783 8.28392 1 10.1291 1 12.0002C1 13.8713 1.42783 15.7165 2.24931 17.3883L6.14551 14.2968Z" fill="#FBBC04"/>
<path d="M12.7318 4.75037C14.4049 4.72241 16.0217 5.36898 17.2325 6.55031L20.5812 3.12543C18.4578 1.08563 15.6447 -0.034254 12.7318 0.000543143C10.557 0.000644515 8.4251 0.618945 6.57402 1.78642C4.72293 2.95389 3.22555 4.62458 2.24902 6.61197L6.14522 9.70353C7.07405 6.8603 9.67152 4.75037 12.7318 4.75037Z" fill="#EA4335"/>
</svg>
