<svg width="50" height="14" viewBox="0 0 50 14" fill="none" xmlns="http://www.w3.org/2000/svg">
<path d="M6.00006 0.00195312H2.11098C1.84485 0.00195312 1.61852 0.195299 1.577 0.458021L0.00408279 10.4307C-0.0271937 10.6274 0.125207 10.8048 0.324808 10.8048H2.18149C2.44763 10.8048 2.67396 10.6115 2.71547 10.3482L3.13969 7.65843C3.18063 7.39514 3.40753 7.20179 3.67309 7.20179H4.90425C7.46607 7.20179 8.9446 5.96211 9.33072 3.50548C9.50473 2.43071 9.33811 1.58625 8.83485 0.994838C8.28211 0.345425 7.30173 0.00195312 6.00006 0.00195312ZM6.44874 3.64424C6.23606 5.03974 5.16981 5.03974 4.13883 5.03974H3.55197L3.96368 2.43356C3.98813 2.27604 4.12461 2.16003 4.28384 2.16003H4.55282C5.25511 2.16003 5.91761 2.16003 6.25994 2.56037C6.46409 2.79921 6.52664 3.15405 6.44874 3.64424Z" fill="#253B80"/>
<path d="M17.625 3.59788H15.7626C15.6039 3.59788 15.4669 3.71388 15.4424 3.8714L15.36 4.3923L15.2298 4.2035C14.8266 3.61835 13.9275 3.42273 13.0302 3.42273C10.9722 3.42273 9.21445 4.98143 8.87212 7.16794C8.69413 8.25864 8.94718 9.30156 9.56589 10.0289C10.1334 10.6976 10.9455 10.9763 11.9116 10.9763C13.5698 10.9763 14.4894 9.91003 14.4894 9.91003L14.4063 10.4275C14.3751 10.6254 14.5275 10.8028 14.7259 10.8028H16.4035C16.6702 10.8028 16.8954 10.6095 16.9375 10.3462L17.944 3.97206C17.9758 3.77587 17.824 3.59788 17.625 3.59788ZM15.029 7.22253C14.8493 8.2865 14.0049 9.00074 12.9278 9.00074C12.387 9.00074 11.9548 8.8273 11.6773 8.49861C11.4021 8.1722 11.2975 7.7076 11.385 7.19012C11.5528 6.13525 12.4115 5.39769 13.472 5.39769C14.0009 5.39769 14.4308 5.57341 14.714 5.90494C14.9978 6.23988 15.1103 6.70732 15.029 7.22253Z" fill="#253B80"/>
<path d="M27.5437 3.5979H25.6722C25.4937 3.5979 25.3259 3.68661 25.2247 3.83503L22.6435 7.63711L21.5494 3.98345C21.4806 3.75485 21.2697 3.5979 21.0308 3.5979H19.1918C18.9683 3.5979 18.813 3.81627 18.8841 4.02667L20.9455 10.0761L19.0075 12.8119C18.8551 13.0275 19.0087 13.3237 19.2719 13.3237H21.1411C21.3186 13.3237 21.4846 13.2373 21.5853 13.0917L27.8098 4.10685C27.9588 3.8919 27.8059 3.5979 27.5437 3.5979Z" fill="#253B80"/>
<path d="M33.7403 0.000549316H29.8506C29.5851 0.000549316 29.3588 0.193895 29.3172 0.456617L27.7443 10.4293C27.713 10.626 27.8654 10.8034 28.0639 10.8034H30.0599C30.2453 10.8034 30.404 10.6681 30.433 10.4838L30.8794 7.65702C30.9203 7.39373 31.1472 7.20039 31.4128 7.20039H32.6434C35.2057 7.20039 36.6837 5.9607 37.0704 3.50408C37.245 2.42931 37.0772 1.58484 36.5739 0.993434C36.0218 0.344022 35.042 0.000549316 33.7403 0.000549316ZM34.189 3.64283C33.9769 5.03833 32.9106 5.03833 31.8791 5.03833H31.2928L31.7051 2.43215C31.7295 2.27463 31.8648 2.15862 32.0246 2.15862H32.2936C32.9954 2.15862 33.6584 2.15862 34.0007 2.55896C34.2049 2.7978 34.2669 3.15265 34.189 3.64283Z" fill="#179BD7"/>
<path d="M45.3642 3.59788H43.503C43.3432 3.59788 43.2073 3.71388 43.1834 3.8714L43.101 4.3923L42.9702 4.2035C42.567 3.61835 41.6685 3.42273 40.7712 3.42273C38.7132 3.42273 36.956 4.98143 36.6137 7.16794C36.4362 8.25864 36.6882 9.30156 37.3069 10.0289C37.8755 10.6976 38.6864 10.9763 39.6526 10.9763C41.3108 10.9763 42.2303 9.91003 42.2303 9.91003L42.1473 10.4275C42.116 10.6254 42.2684 10.8028 42.468 10.8028H44.145C44.4106 10.8028 44.6369 10.6095 44.6784 10.3462L45.6855 3.97206C45.7162 3.77587 45.5638 3.59788 45.3642 3.59788ZM42.7683 7.22253C42.5897 8.2865 41.7441 9.00074 40.6671 9.00074C40.1274 9.00074 39.6941 8.8273 39.4166 8.49861C39.1414 8.1722 39.0379 7.7076 39.1243 7.19012C39.2932 6.13525 40.1507 5.39769 41.2113 5.39769C41.7402 5.39769 42.1701 5.57341 42.4533 5.90494C42.7382 6.23988 42.8508 6.70732 42.7683 7.22253Z" fill="#179BD7"/>
<path d="M47.5598 0.274095L45.9636 10.4293C45.9323 10.626 46.0847 10.8035 46.2831 10.8035H47.8879C48.1546 10.8035 48.3809 10.6101 48.4219 10.3468L49.9959 0.374749C50.0272 0.177991 49.8748 0 49.6764 0H47.8794C47.7207 0.000568663 47.5842 0.116576 47.5598 0.274095Z" fill="#179BD7"/>
</svg>
